<svg width="139" height="21" viewBox="0 0 139 21" fill="none" xmlns="http://www.w3.org/2000/svg">
<path d="M9.49855 20.5228C7.56992 20.5228 5.93174 20.0929 4.58403 19.2332C3.23631 18.3734 2.20228 17.1942 1.48195 15.6954C0.773238 14.1967 0.413072 12.4946 0.401454 10.5892C0.413072 8.64896 0.784857 6.93527 1.51681 5.44813C2.24876 3.94938 3.2944 2.77593 4.65374 1.9278C6.01307 1.07967 7.64544 0.655602 9.55083 0.655602C11.6073 0.655602 13.3616 1.1668 14.8139 2.18921C16.2778 3.21162 17.2421 4.61162 17.7068 6.38921L14.082 7.43485C13.7218 6.37759 13.1293 5.55851 12.3044 4.97759C11.4911 4.38506 10.5558 4.0888 9.49855 4.0888C8.30187 4.0888 7.32013 4.37344 6.55332 4.94274C5.78652 5.50041 5.21722 6.26722 4.84544 7.24315C4.47365 8.21909 4.28195 9.33444 4.27033 10.5892C4.28195 12.5295 4.72345 14.0979 5.59482 15.2946C6.4778 16.4913 7.77905 17.0896 9.49855 17.0896C10.672 17.0896 11.6189 16.8224 12.3392 16.288C13.0712 15.7419 13.6288 14.9635 14.0122 13.9527L17.7068 14.8241C17.0911 16.6598 16.0745 18.0714 14.6571 19.0589C13.2396 20.0349 11.5201 20.5228 9.49855 20.5228ZM25.6371 20.5228C24.2429 20.5228 23.0753 20.2672 22.1342 19.756C21.1931 19.2332 20.4786 18.5477 19.9907 17.6996C19.5143 16.8398 19.2761 15.8988 19.2761 14.8763C19.2761 13.9237 19.4446 13.0871 19.7815 12.3668C20.1185 11.6465 20.618 11.0365 21.2803 10.5369C21.9425 10.0257 22.7558 9.61328 23.7201 9.29959C24.5566 9.0556 25.5035 8.84066 26.5608 8.65477C27.618 8.46888 28.7276 8.29461 29.8894 8.13195C31.0628 7.96929 32.2247 7.80664 33.3749 7.64398L32.0504 8.37593C32.0736 6.90041 31.7599 5.8083 31.1093 5.09959C30.4703 4.37925 29.3666 4.01909 27.7981 4.01909C26.8106 4.01909 25.9043 4.25145 25.0794 4.71618C24.2546 5.16929 23.6794 5.92448 23.3541 6.98174L19.9558 5.9361C20.4205 4.32116 21.3035 3.03734 22.6048 2.08465C23.9176 1.13195 25.6604 0.655602 27.833 0.655602C29.5176 0.655602 30.9815 0.946058 32.2247 1.52697C33.4794 2.09627 34.3973 3.00249 34.9782 4.24564C35.2803 4.86141 35.4662 5.51203 35.5359 6.19751C35.6056 6.88299 35.6404 7.62075 35.6404 8.41079V20H32.4164V15.6954L33.0438 16.2531C32.2653 17.6938 31.272 18.7685 30.0637 19.4772C28.867 20.1743 27.3915 20.5228 25.6371 20.5228ZM26.2819 17.5427C27.316 17.5427 28.2048 17.3627 28.9483 17.0025C29.6919 16.6307 30.2902 16.1602 30.7433 15.5909C31.1965 15.0216 31.4927 14.429 31.6321 13.8133C31.8297 13.2556 31.94 12.6282 31.9633 11.9311C31.9981 11.234 32.0155 10.6763 32.0155 10.2581L33.2006 10.6938C32.0504 10.868 31.0048 11.0249 30.0637 11.1643C29.1226 11.3037 28.2687 11.4432 27.5019 11.5826C26.7467 11.7104 26.0728 11.8672 25.4803 12.0531C24.9807 12.2274 24.5334 12.4365 24.1384 12.6805C23.755 12.9245 23.4471 13.2207 23.2147 13.5693C22.994 13.9178 22.8836 14.3419 22.8836 14.8415C22.8836 15.3295 23.0056 15.7826 23.2496 16.2008C23.4936 16.6075 23.8653 16.9328 24.3649 17.1768C24.8645 17.4207 25.5035 17.5427 26.2819 17.5427ZM39.4513 20V1.17842H42.5011L49.4546 14.9809L56.3907 1.17842H59.458V20H55.9376V8.63734L50.2737 20H48.6181L42.9542 8.63734V20H39.4513ZM71.8268 20.5228C69.9446 20.5228 68.3123 20.0988 66.9297 19.2506C65.5471 18.4025 64.4782 17.2349 63.723 15.7477C62.9795 14.249 62.6077 12.5237 62.6077 10.5718C62.6077 8.6083 62.9911 6.88299 63.7579 5.39585C64.5247 3.89709 65.5994 2.73527 66.982 1.91037C68.3645 1.07386 69.9795 0.655602 71.8268 0.655602C73.7089 0.655602 75.3413 1.07967 76.7239 1.9278C78.1064 2.77593 79.1753 3.94357 79.9305 5.43071C80.6857 6.91784 81.0633 8.63154 81.0633 10.5718C81.0633 12.5353 80.6799 14.2664 79.9131 15.7651C79.1579 17.2523 78.089 18.4199 76.7064 19.268C75.3239 20.1046 73.6973 20.5228 71.8268 20.5228ZM71.8268 17.0896C73.6276 17.0896 74.9695 16.4855 75.8525 15.2772C76.7471 14.0573 77.1944 12.4888 77.1944 10.5718C77.1944 8.6083 76.7413 7.03983 75.8351 5.86639C74.9405 4.68133 73.6044 4.0888 71.8268 4.0888C70.6069 4.0888 69.6019 4.36763 68.8118 4.92531C68.0218 5.47137 67.4351 6.23237 67.0517 7.2083C66.6683 8.17261 66.4766 9.29378 66.4766 10.5718C66.4766 12.5469 66.9297 14.127 67.8359 15.312C68.7421 16.4971 70.0724 17.0896 71.8268 17.0896ZM82.4531 20V16.9154C83.1502 17.0432 83.6788 17.0257 84.039 16.8631C84.4108 16.6888 84.6838 16.3751 84.8581 15.922C85.044 15.4689 85.2008 14.8822 85.3286 14.1618C85.5262 13.1046 85.6946 11.9021 85.834 10.5544C85.9851 9.19502 86.1187 7.72531 86.2349 6.14523C86.351 4.56515 86.4556 2.90954 86.5486 1.17842H100.072V20H96.4125V4.61162H89.8249C89.7552 5.52946 89.6739 6.50539 89.5809 7.53942C89.4996 8.56183 89.4066 9.57842 89.3021 10.5892C89.1975 11.6 89.0871 12.5469 88.971 13.4299C88.8548 14.3129 88.7328 15.068 88.605 15.6954C88.3726 16.9502 88.0299 17.9494 87.5768 18.6929C87.1353 19.4249 86.5079 19.8954 85.6946 20.1046C84.8813 20.3253 83.8008 20.2905 82.4531 20ZM112.61 20.5228C110.739 20.5228 109.095 20.1162 107.678 19.3029C106.272 18.478 105.174 17.3336 104.384 15.8697C103.605 14.3942 103.216 12.6863 103.216 10.7461C103.216 8.68963 103.6 6.90622 104.366 5.39585C105.145 3.88548 106.225 2.71784 107.608 1.89295C108.99 1.06805 110.6 0.655602 112.435 0.655602C114.352 0.655602 115.985 1.10291 117.332 1.99751C118.68 2.8805 119.685 4.14108 120.347 5.77925C121.021 7.41743 121.288 9.36349 121.149 11.6174H117.507V10.2929C117.483 8.10871 117.065 6.49378 116.252 5.44813C115.45 4.40249 114.225 3.87967 112.575 3.87967C110.751 3.87967 109.38 4.45477 108.462 5.60498C107.544 6.75519 107.085 8.4166 107.085 10.5892C107.085 12.6573 107.544 14.2606 108.462 15.3992C109.38 16.5261 110.704 17.0896 112.435 17.0896C113.574 17.0896 114.556 16.834 115.381 16.3228C116.217 15.8 116.868 15.0564 117.332 14.0921L120.905 15.2249C120.173 16.9095 119.064 18.2166 117.576 19.1461C116.089 20.0639 114.434 20.5228 112.61 20.5228ZM105.9 11.6174V8.77676H119.337V11.6174H105.9ZM128.748 20V4.45477H122.317V1.17842H138.821V4.45477H132.39V20H128.748Z" fill="white"/>
</svg>
